<svg width="24" height="24" viewBox="0 0 24 24" fill="none" xmlns="http://www.w3.org/2000/svg">
<g clip-path="url(#clip0_124_15008)">
<path d="M22.2225 0.000976562H1.7715C0.795 0.000976562 0 0.775727 0 1.72973V22.2677C0 23.224 0.795 24.0002 1.7715 24.0002H22.224C23.2027 24.0002 24 23.224 24 22.2677V1.72973C24 0.775727 23.2027 0.000976562 22.2225 0.000976562Z" fill="#0177B5"/>
<path d="M3.55964 8.99785H7.12589V20.4504H3.55964V8.99785ZM5.34014 3.29785C6.47789 3.29785 7.40264 4.2226 7.40264 5.36035C7.40264 6.4981 6.47789 7.4251 5.34089 7.4251C4.79358 7.42391 4.26902 7.20602 3.88194 6.81908C3.49486 6.43215 3.27678 5.90766 3.27539 5.36035C3.27539 5.08931 3.32881 4.82093 3.4326 4.57055C3.53639 4.32017 3.68852 4.0927 3.88028 3.90115C4.07204 3.7096 4.29967 3.55772 4.55016 3.45421C4.80066 3.35069 5.0691 3.29756 5.34014 3.29785ZM9.35264 8.99785H12.7666V10.5631H12.8139C13.2894 9.6631 14.4504 8.7136 16.1889 8.7136C19.7934 8.7136 20.4586 11.0859 20.4586 14.1691V20.4511H16.9014V14.8801C16.9014 13.5526 16.8774 11.8426 15.0519 11.8426C13.1994 11.8426 12.9144 13.2901 12.9144 14.7826V20.4481H9.35789V8.9956L9.35264 8.99785Z" fill="white"/>
</g>
<defs>
<clipPath id="clip0_124_15008">
<rect width="24" height="24" fill="white"/>
</clipPath>
</defs>
</svg>
