<svg width="20" height="20" viewBox="0 0 20 20" fill="none" xmlns="http://www.w3.org/2000/svg">
<path d="M5 8.33317V6.6665C5 3.90817 5.83333 1.6665 10 1.6665C14.1667 1.6665 15 3.90817 15 6.6665V8.33317" stroke="#8A8B8C" stroke-width="1.5" stroke-linecap="round" stroke-linejoin="round"/>
<path d="M7.91663 13.3333C7.91663 14.4833 8.84996 15.4167 9.99996 15.4167C11.15 15.4167 12.0833 14.4833 12.0833 13.3333C12.0833 12.1833 11.15 11.25 9.99996 11.25" stroke="#8A8B8C" stroke-width="1.5" stroke-linecap="round" stroke-linejoin="round"/>
<path d="M18.3333 14.1668V12.5002C18.3333 9.16683 17.5 8.3335 14.1666 8.3335H5.83329C2.49996 8.3335 1.66663 9.16683 1.66663 12.5002V14.1668C1.66663 17.5002 2.49996 18.3335 5.83329 18.3335H14.1666C15.6333 18.3335 16.6166 18.1752 17.2583 17.7085" stroke="#8A8B8C" stroke-width="1.5" stroke-linecap="round" stroke-linejoin="round"/>
</svg>
