<svg width="756" height="982" viewBox="0 0 756 982" fill="none" xmlns="http://www.w3.org/2000/svg">
<rect width="756" height="982" fill="none"/>
<path d="M219 489.333V487.667C219 484.908 219.833 482.667 224 482.667C228.167 482.667 229 484.908 229 487.667V489.333" stroke="#8A8B8C" stroke-width="1.5" stroke-linecap="round" stroke-linejoin="round"/>
<path d="M221.917 494.333C221.917 495.483 222.85 496.417 224 496.417C225.15 496.417 226.083 495.483 226.083 494.333C226.083 493.183 225.15 492.25 224 492.25" stroke="#8A8B8C" stroke-width="1.5" stroke-linecap="round" stroke-linejoin="round"/>
<path d="M232.333 495.167V493.5C232.333 490.167 231.5 489.333 228.167 489.333H219.833C216.5 489.333 215.667 490.167 215.667 493.5V495.167C215.667 498.5 216.5 499.333 219.833 499.333H228.167C229.633 499.333 230.617 499.175 231.258 498.708" stroke="#8A8B8C" stroke-width="1.5" stroke-linecap="round" stroke-linejoin="round"/>
</svg>
