<svg width="16" height="22" viewBox="0 0 16 22" fill="none" xmlns="http://www.w3.org/2000/svg">
<path d="M11.6792 2.96C12.1592 3.67 12.4392 4.52 12.4392 5.44C12.4292 7.84 10.5392 9.79 8.15922 9.87C8.05922 9.86 7.93922 9.86 7.82922 9.87C5.61922 9.8 3.82922 8.11 3.58922 5.95C3.29922 3.38 5.40922 1 7.98922 1" stroke="#793EF5" stroke-width="1.5" stroke-linecap="round" stroke-linejoin="round"/>
<path d="M2.99078 13.56C0.570781 15.18 0.570781 17.82 2.99078 19.43C5.74078 21.27 10.2508 21.27 13.0008 19.43C15.4208 17.81 15.4208 15.17 13.0008 13.56C10.2708 11.73 5.76078 11.73 2.99078 13.56Z" stroke="#793EF5" stroke-width="1.5" stroke-linecap="round" stroke-linejoin="round"/>
</svg>
