<svg width="16" height="22" viewBox="0 0 16 22" fill="none" xmlns="http://www.w3.org/2000/svg">
<path d="M11.6802 2.96C12.1602 3.67 12.4402 4.52 12.4402 5.44C12.4302 7.84 10.5402 9.79 8.1602 9.87C8.0602 9.86 7.9402 9.86 7.8302 9.87C5.6202 9.8 3.8302 8.11 3.5902 5.95C3.3002 3.38 5.4102 1 7.9902 1" stroke="#8A8B8C" stroke-width="1.5" stroke-linecap="round" stroke-linejoin="round"/>
<path d="M2.9898 13.56C0.569805 15.18 0.569805 17.82 2.9898 19.43C5.7398 21.27 10.2498 21.27 12.9998 19.43C15.4198 17.81 15.4198 15.17 12.9998 13.56C10.2698 11.73 5.7598 11.73 2.9898 13.56Z" stroke="#8A8B8C" stroke-width="1.5" stroke-linecap="round" stroke-linejoin="round"/>
</svg>
