<svg width="22" height="22" viewBox="0 0 22 22" fill="none" xmlns="http://www.w3.org/2000/svg">
<path d="M11 21.25C5.34614 21.25 0.75 16.6539 0.75 11C0.75 5.34614 5.34614 0.75 11 0.75C16.6539 0.75 21.25 5.34614 21.25 11C21.25 16.6539 16.6539 21.25 11 21.25ZM11 1.25C5.62386 1.25 1.25 5.62386 1.25 11C1.25 16.3761 5.62386 20.75 11 20.75C16.3761 20.75 20.75 16.3761 20.75 11C20.75 5.62386 16.3761 1.25 11 1.25Z" fill="#5F2120" stroke="#5F2120"/>
<path d="M11 12.25C10.8661 12.25 10.75 12.1339 10.75 12V7C10.75 6.86614 10.8661 6.75 11 6.75C11.1339 6.75 11.25 6.86614 11.25 7V12C11.25 12.1339 11.1339 12.25 11 12.25Z" fill="#5F2120" stroke="#5F2120"/>
<path d="M10.5467 15.2004L10.5469 15.2003L10.5415 15.1876C10.5128 15.1187 10.5 15.054 10.5 14.9999C10.5 14.9457 10.5128 14.881 10.5415 14.8122C10.566 14.7535 10.5996 14.6977 10.6444 14.6443C10.6978 14.5995 10.7536 14.5659 10.8123 14.5414C10.9292 14.4927 11.0708 14.4927 11.1877 14.5414C11.2464 14.5659 11.3022 14.5995 11.3556 14.6443C11.4004 14.6977 11.434 14.7535 11.4585 14.8122C11.4872 14.881 11.5 14.9457 11.5 14.9999C11.5 15.054 11.4872 15.1187 11.4585 15.1876L11.4583 15.1875L11.4533 15.2004C11.4336 15.2516 11.4069 15.2961 11.3565 15.3548C11.3028 15.3999 11.2467 15.4337 11.1877 15.4583C11.1188 15.487 11.0541 15.4999 11 15.4999C10.9459 15.4999 10.8812 15.487 10.8123 15.4583C10.7533 15.4337 10.6972 15.3999 10.6435 15.3548C10.5931 15.2961 10.5664 15.2516 10.5467 15.2004Z" fill="#5F2120" stroke="#5F2120"/>
</svg>
