<svg width="22" height="20" viewBox="0 0 22 20" fill="none" xmlns="http://www.w3.org/2000/svg">
<path d="M2.27 10C1.48 9.05 1 7.83 1 6.5C1 3.48 3.47 1 6.5 1H11.5C14.52 1 17 3.48 17 6.5C17 9.52 14.53 12 11.5 12H9" stroke="#793EF5" stroke-width="1.5" stroke-linecap="round" stroke-linejoin="round"/>
<path d="M10.98 19H10.5C7.48 19 5 16.52 5 13.5C5 10.48 7.47 8 10.5 8H13" stroke="#793EF5" stroke-width="1.5" stroke-linecap="round" stroke-linejoin="round"/>
<path d="M19.73 10C20.52 10.95 21 12.17 21 13.5C21 16.52 18.53 19 15.5 19" stroke="#793EF5" stroke-width="1.5" stroke-linecap="round" stroke-linejoin="round"/>
</svg>
