<svg width="18" height="16" viewBox="0 0 18 16" fill="none" xmlns="http://www.w3.org/2000/svg">
<path d="M6.52506 9.6666C6.20006 9.1916 6.01672 8.6166 6.01672 7.99993C6.01672 6.34993 7.35006 5.0166 9.00006 5.0166C10.6501 5.0166 11.9834 6.34993 11.9834 7.99993C11.9834 9.64994 10.6501 10.9833 9.00006 10.9833" stroke="#8A8B8C" stroke-width="1.5" stroke-linecap="round" stroke-linejoin="round"/>
<path d="M13.6333 2.65007C12.225 1.65007 10.6417 1.1084 8.99999 1.1084C6.05833 1.1084 3.31666 2.84173 1.40833 5.84173C0.658325 7.01673 0.658325 8.99173 1.40833 10.1667C3.31666 13.1667 6.05833 14.9001 8.99999 14.9001C11.9417 14.9001 14.6833 13.1667 16.5917 10.1667C17.3417 8.99173 17.3417 7.01673 16.5917 5.84173" stroke="#8A8B8C" stroke-width="1.5" stroke-linecap="round" stroke-linejoin="round"/>
</svg>
